<svg width="210mm" height="297mm" version="1.1" viewBox="0 0 210 297" xmlns="http://www.w3.org/2000/svg">
 <text fill="black" font-family="sans-serif" font-size="3.5278px" letter-spacing="0px" word-spacing="0px" style="line-height:1.25;shape-inside:url(#rect8032);white-space:pre" xml:space="preserve"/>
 <path d="m1.0599 206.14h60.208v89.89h-60.208zm53.384 22.683-1.1069 0.22324v0.57051l1.1131-0.22325v3.5316h-1.0232v0.5271h2.6665v-0.5271h-1.0232v-4.1021zm-5.3733 1.1565 1.3022 3.4727h0.77515l1.3022-3.4727h-0.60462l-1.0852 2.9146-1.0852-2.9146zm-35.599-11.907-1.3715 0.22686v6.8244c0 0.29473 0.03049 0.55895 0.09095 0.79323 0.06802 0.22672 0.18133 0.41956 0.34003 0.57826 0.1587 0.15115 0.37008 0.26827 0.63459 0.3514 0.27206 0.0831 0.612 0.12838 1.0201 0.13591l0.19275-1.1333c-0.18137-0.0227-0.33229-0.0532-0.4532-0.091-0.11336-0.0453-0.20432-0.10582-0.27233-0.18139-0.06802-0.0831-0.11705-0.18119-0.14728-0.29455-0.02268-0.11336-0.03411-0.25335-0.03411-0.41962zm15.521 0-1.3715 0.22686v8.57h1.3715v-2.7208c0.20405 0.15115 0.41213 0.33636 0.62373 0.55552 0.2116 0.2116 0.41917 0.43823 0.62322 0.68006 0.20405 0.24184 0.39307 0.49133 0.56689 0.74827 0.18137 0.25694 0.33991 0.50263 0.47594 0.73691h1.5875c-0.13603-0.25695-0.30652-0.53642-0.51056-0.83871-0.20405-0.30229-0.42305-0.60463-0.65733-0.90692-0.23427-0.30229-0.47615-0.58558-0.72554-0.85008-0.24939-0.27206-0.48745-0.50301-0.71417-0.69194 0.42321-0.43077 0.84267-0.87258 1.2583-1.326 0.4232-0.45343 0.82361-0.89196 1.2015-1.3152h-1.6211c-0.12092 0.14359-0.26802 0.31356-0.44183 0.51005-0.16626 0.18893-0.34385 0.38939-0.53278 0.601-0.18893 0.20404-0.38177 0.41213-0.57826 0.62373-0.19649 0.20405-0.38171 0.39637-0.55552 0.57774zm16.588 0.2837c-0.24939 0-0.4722 0.0905-0.66869 0.27182-0.18893 0.18138-0.28319 0.41181-0.28319 0.69143 0 0.24184 0.0752 0.42323 0.22634 0.54415 0.15115 0.12092 0.32874 0.18139 0.53279 0.18139 0.24939 0 0.47272-0.0866 0.66921-0.26045 0.19649-0.18137 0.29456-0.41181 0.29456-0.69143 0-0.24183-0.07953-0.42323-0.23823-0.54415-0.15114-0.12848-0.32874-0.19276-0.53278-0.19276zm-37.07 0.47594c-0.53656 0-1.0394 0.091-1.5079 0.27234-0.46855 0.18137-0.87658 0.44941-1.2242 0.8046-0.34763 0.34763-0.62329 0.77473-0.82734 1.2811-0.19649 0.50634-0.29507 1.0882-0.29507 1.7456s0.08715 1.2393 0.26097 1.7456c0.17382 0.50633 0.42331 0.93724 0.74828 1.2924 0.32496 0.34763 0.72156 0.61237 1.1901 0.79375 0.46855 0.18136 0.99752 0.27182 1.587 0.27182 0.30229 0 0.58557-0.0191 0.85008-0.0568 0.2645-0.0302 0.50256-0.0716 0.71417-0.12454 0.2116-0.0605 0.39301-0.12092 0.54415-0.18138 0.1587-0.0605 0.28345-0.12092 0.37414-0.18139l-0.38551-1.1674c-0.17382 0.0907-0.4195 0.18875-0.73691 0.29456-0.3174 0.0982-0.72925 0.14727-1.2356 0.14727-0.42321 0-0.78602-0.0681-1.0883-0.20412-0.30229-0.14358-0.55127-0.33972-0.74776-0.58911-0.19649-0.25694-0.34411-0.55929-0.44235-0.90692-0.09069-0.34763-0.13591-0.7295-0.13591-1.1452 0-0.46854 0.06047-0.88038 0.18138-1.2356 0.12092-0.35519 0.28707-0.64991 0.49868-0.88419 0.21916-0.23428 0.47628-0.40806 0.77101-0.52141 0.29473-0.12092 0.6118-0.18138 0.95188-0.18138 0.39298 0 0.75579 0.0528 1.0883 0.15864 0.34008 0.0982 0.60101 0.20393 0.78238 0.31729l0.4191-1.1674c-0.0529-0.0302-0.14334-0.0793-0.27182-0.14728-0.12847-0.068-0.29082-0.13228-0.48731-0.19275-0.19649-0.0605-0.42693-0.11331-0.69143-0.15864-0.2645-0.0529-0.55922-0.0796-0.88418-0.0796zm9.494 1.9611c-0.41565 0-0.797 0.0757-1.1446 0.22685-0.34763 0.14359-0.64998 0.35115-0.90692 0.62322-0.24939 0.27206-0.44604 0.60109-0.58963 0.9865-0.13603 0.37787-0.20412 0.80114-0.20412 1.2697s0.06809 0.89513 0.20412 1.2806c0.14359 0.38542 0.34024 0.71444 0.58963 0.9865 0.24939 0.27207 0.54792 0.48345 0.89555 0.63459 0.34763 0.15114 0.7328 0.22686 1.156 0.22686 0.42321 0 0.80888-0.0757 1.1565-0.22686 0.35519-0.15114 0.65753-0.36252 0.90692-0.63459 0.24939-0.27206 0.44171-0.60108 0.57774-0.9865 0.13603-0.38542 0.20412-0.812 0.20412-1.2806s-0.0719-0.89182-0.21549-1.2697c-0.13603-0.38541-0.32835-0.71444-0.57774-0.9865-0.24939-0.27207-0.55173-0.47963-0.90692-0.62322-0.34763-0.15114-0.7295-0.22685-1.1452-0.22685zm6.8657 0c-0.45344 0-0.86146 0.0795-1.2242 0.23822-0.36275 0.1587-0.67271 0.37771-0.92966 0.65733-0.24939 0.27962-0.44223 0.61193-0.57826 0.99735-0.13603 0.37786-0.20361 0.78641-0.2036 1.2247 0 0.44589 0.06047 0.86154 0.18138 1.247 0.12092 0.37786 0.3018 0.70636 0.54364 0.98598 0.24939 0.27206 0.55935 0.48777 0.92966 0.64647 0.37786 0.15114 0.8202 0.22635 1.3265 0.22635 0.32496 0 0.63874-0.03 0.94103-0.0904 0.30984-0.0605 0.54028-0.12855 0.69143-0.20412l-0.19275-1.1338c-0.16626 0.068-0.36291 0.12468-0.58963 0.17002-0.22672 0.0453-0.45716 0.0682-0.69143 0.0682-0.62725 0-1.0734-0.16997-1.3379-0.51005-0.2645-0.34763-0.39636-0.81613-0.39636-1.4056 0-0.61214 0.13948-1.0844 0.4191-1.417 0.27962-0.34008 0.68765-0.51057 1.2242-0.51057 0.22672 0 0.43861 0.0229 0.6351 0.0682 0.20404 0.0453 0.38545 0.102 0.54415 0.17001l0.29456-1.1224c-0.49878-0.20405-1.0277-0.30592-1.587-0.30592zm24.423 0c-0.81618 0-1.4394 0.17378-1.8702 0.52141-0.43076 0.34763-0.64647 0.81613-0.64647 1.4056 0 0.22671 0.03431 0.42337 0.10232 0.58963 0.06802 0.1587 0.15846 0.2987 0.27182 0.41961 0.11336 0.12091 0.24573 0.22661 0.39688 0.31729 0.1587 0.0907 0.32867 0.17733 0.51005 0.26045 0.34008 0.1587 0.57814 0.29869 0.71417 0.41961 0.13603 0.11336 0.20412 0.2681 0.20412 0.46457 0 0.24184-0.10569 0.42325-0.31729 0.54416-0.2116 0.11335-0.49921 0.17001-0.86196 0.17001-0.18137 0-0.35516-0.0148-0.52141-0.045-0.1587-0.0378-0.3058-0.0797-0.44183-0.12506-0.12847-0.0454-0.2456-0.0906-0.3514-0.13591-0.09824-0.0529-0.17396-0.0943-0.22686-0.12454l-0.48731 1.0769c0.06046 0.0377 0.14709 0.083 0.26045 0.1359s0.25335 0.10572 0.41961 0.15865c0.16626 0.0453 0.3591 0.0867 0.57826 0.12454 0.22672 0.0378 0.48003 0.0568 0.75965 0.0568 0.40809 0 0.77038-0.049 1.0878-0.14728 0.3174-0.0983 0.58215-0.23062 0.79375-0.39688 0.21916-0.17382 0.38532-0.37757 0.49868-0.61185 0.11336-0.24183 0.17002-0.50276 0.17002-0.78238 0-0.22672-0.02617-0.41956-0.07906-0.57826-0.0529-0.16626-0.13624-0.31336-0.2496-0.44183-0.11336-0.13603-0.25716-0.25696-0.43098-0.36277-0.17382-0.10579-0.3852-0.2153-0.63458-0.32866-0.26451-0.12092-0.46878-0.23475-0.61237-0.34055-0.13603-0.11336-0.2036-0.25664-0.2036-0.43046 0-0.13603 0.02997-0.24935 0.09043-0.34003 0.06801-0.0982 0.15135-0.17393 0.2496-0.22686 0.09824-0.0529 0.20774-0.0905 0.32866-0.11318 0.12847-0.0227 0.25703-0.0341 0.3855-0.0341 0.2645 0 0.51729 0.0376 0.75913 0.11317 0.24183 0.068 0.42705 0.13992 0.55552 0.21549l0.48782-1.0656c-0.15115-0.0831-0.37829-0.16265-0.68058-0.23823-0.29473-0.0831-0.63086-0.12453-1.0087-0.12453zm5.5263 0c-0.53656 0-1.0203 0.1095-1.4511 0.32866-0.43076 0.21916-0.8012 0.51387-1.111 0.88418-0.30229 0.36275-0.53654 0.78221-0.7028 1.2583-0.1587 0.46855-0.23771 0.95611-0.23771 1.4624 0 0.31741 0.04522 0.61594 0.13591 0.89556 0.09069 0.27206 0.23068 0.51393 0.41961 0.72553 0.19649 0.21161 0.44547 0.37776 0.74776 0.49868s0.6651 0.18139 1.0883 0.18139 0.80126-0.0414 1.1338-0.12454c0.33252-0.0831 0.58964-0.16647 0.77101-0.2496l-0.11369-1.111c-0.51389 0.2116-1.0276 0.31781-1.5415 0.31781-0.86908 0-1.3038-0.34428-1.3038-1.032v-0.11317c0-0.0151 0.0038-0.0303 0.01138-0.0455 0.48366-0.0151 0.95978-0.0527 1.4283-0.11317 0.47611-0.0605 0.89938-0.17377 1.2697-0.34003 0.37786-0.16626 0.68402-0.39669 0.91829-0.69143 0.23428-0.29473 0.3514-0.68042 0.3514-1.1565 0-0.46099-0.15906-0.83853-0.47646-1.1333-0.3174-0.29472-0.76303-0.44234-1.3374-0.44234zm-20.218 0.14727c0.01511 0.58191 0.0418 1.1528 0.07958 1.712 0.04535 0.55924 0.09438 1.092 0.14728 1.5984 0.0529 0.50633 0.10956 0.98246 0.17002 1.4283 0.06801 0.44588 0.13611 0.84248 0.20412 1.1901h1.1333c0.16626-0.23428 0.34766-0.49902 0.54416-0.79375 0.19649-0.3023 0.39314-0.61555 0.58963-0.94051 0.19649-0.33252 0.38552-0.66916 0.56689-1.0092 0.18138-0.34764 0.34372-0.68376 0.48731-1.0087 0.01511 0.63482 0.0489 1.2618 0.1018 1.8815 0.06046 0.61214 0.13236 1.2359 0.21549 1.8707h1.1338c0.35519-0.43077 0.69513-0.89545 1.0201-1.3942 0.33252-0.50633 0.64248-1.0206 0.92966-1.542 0.28718-0.52144 0.5443-1.0352 0.77101-1.5415 0.23428-0.51389 0.43041-0.99764 0.58911-1.4511h-1.4283c-0.09824 0.30986-0.2268 0.65742-0.38551 1.0428-0.15115 0.37787-0.32112 0.76354-0.51005 1.1565-0.18893 0.38542-0.38506 0.76348-0.58911 1.1338-0.20405 0.37031-0.40451 0.69882-0.601 0.98599-0.04534-0.3703-0.08294-0.74455-0.11317-1.1224-0.02267-0.38542-0.04554-0.76296-0.06821-1.1333-0.01514-0.3703-0.02655-0.7293-0.03411-1.0769-0.0076-0.34763-0.01138-0.67664-0.01138-0.9865h-1.1787c-0.12092 0.33252-0.26472 0.6839-0.43098 1.0542-0.1587 0.37031-0.33248 0.74455-0.52141 1.1224-0.18893 0.37031-0.38888 0.74074-0.60048 1.111-0.20405 0.36274-0.41213 0.7065-0.62374 1.0315-0.04534-0.32496-0.08294-0.67253-0.11317-1.0428-0.02267-0.3703-0.04554-0.74455-0.06821-1.1224-0.01513-0.38542-0.02655-0.75967-0.03411-1.1224-0.0076-0.37031-0.01138-0.71406-0.01138-1.0315zm9.8232 0-1.417 5.9288h1.3601l1.4283-5.9288zm10.191 0.97514c0.27206 0 0.46109 0.0605 0.56689 0.18138 0.11336 0.12092 0.17002 0.25658 0.17002 0.40773 0 0.37786-0.20757 0.66166-0.62322 0.85059-0.40809 0.18896-1.0656 0.29847-1.9725 0.32866 0.0529-0.24939 0.13572-0.47983 0.24908-0.69143 0.12092-0.21916 0.26091-0.40819 0.41961-0.56689 0.1587-0.1587 0.34011-0.28345 0.54415-0.37413 0.20405-0.0907 0.41924-0.13591 0.64596-0.13591zm-36.611 0.0677c0.45344 0 0.80481 0.17379 1.0542 0.52142 0.25695 0.34008 0.38551 0.80528 0.38551 1.3947 0 0.59702-0.12856 1.0693-0.38551 1.417-0.24939 0.34764-0.60076 0.52142-1.0542 0.52142s-0.80862-0.17378-1.0656-0.52142c-0.24939-0.34763-0.37414-0.81995-0.37414-1.417 0-0.58946 0.12475-1.0547 0.37414-1.3947 0.25695-0.34763 0.61213-0.52142 1.0656-0.52142zm23.632 37.302h1.0008v0.47752m-0.47498-0.14224v-0.33528m0.14224-0.90424h-0.52324l-0.09652 0.0483-0.04826 0.094v0.14478l0.04826 0.094 0.04826 0.0483m0.5715-1.2e-4h-0.66802m0-1.143h1.0008l-0.14224-0.0965-0.09652-0.094-0.04572-0.0965m-0.71628 0.57148v-0.5715m0.09652-0.42672-0.04826 0.0483-0.04826-0.0483 0.04826-0.0483 0.04826 0.0483h-0.09652m1.0008-0.762v0.094l-0.04826 0.0965-0.04572 0.0483-0.09652 0.0457-0.1905 0.0483h-0.23876l-0.1905-0.0483-0.09398-0.0457-0.04826-0.0483-0.04826-0.0965v-0.094l0.04826-0.0965 0.04826-0.0457 0.09398-0.0483 0.1905-0.0483h0.23876l0.1905 0.0483 0.09652 0.0483 0.04572 0.0457 0.04826 0.0965m-20.472 13.724 0.04826-0.0965 0.04826-0.0457 0.09398-0.0483h0.09652m-0.28702 0.66548v-0.66548m-0.47498 0.61976-0.09652 0.0457h-0.1905l-0.09398-0.0457-0.04826-0.0965v-0.381l0.04826-0.094 0.09398-0.0483h0.1905l0.09652 0.0483 0.04826 0.094v0.0965l-0.47752 0.094m-1.0947-0.33276 0.1905 0.66548 0.1905-0.47498 0.1905 0.47498 0.1905-0.66548m-1.4275 0.66548-0.09652-0.0457-0.04826-0.0483-0.04572-0.0965v-0.28448l0.04572-0.0965 0.04826-0.0457 0.09652-0.0483h0.14224l0.09398 0.0483 0.04826 0.0457 0.04826 0.0965v0.28448l-0.04826 0.0965-0.04826 0.0483-0.09398 0.0457h-0.14224m-1.143 0v-0.99822h0.381l0.09398 0.0457 0.04826 0.0483 0.04826 0.0965v0.14224l-0.04826 0.094-0.04826 0.0483-0.09398 0.0483h-0.381m34.641 14.58h1.0008l-0.14224-0.094-0.09652-0.0965-0.04826-0.094m-0.71374 0.57152v-0.5715m1.0008-0.42926h-0.71374l-0.14478-0.0483-0.09398-0.094-0.04826-0.14224v-0.0965m-2.4536 7.0104-0.04826-0.0483-0.04826-0.14224v-0.0965l0.04826-0.14224 0.09398-0.094 0.09652-0.0483 0.1905-0.0483h0.14224l0.1905 0.0483 0.09652 0.0483 0.09398 0.094 0.04826 0.14224v0.0965l-0.04826 0.14224-0.04826 0.0483m-0.90424-1.5723h1.0008v0.23876l-0.04826 0.14224-0.09398 0.0965-0.09652 0.0457-0.1905 0.0483h-0.14224l-0.1905-0.0483-0.09652-0.0457-0.09398-0.0965-0.04826-0.14224v-0.23876m0.381-1.237v0.762m0.28702-1.1913-0.381-0.381m0.09398 0.0965-0.381 0.28448m0-0.381h1.0008m-0.9525-0.42926-0.04826-0.094v-0.1905l0.04826-0.0965 0.04826-0.0457 0.09398-0.0483h0.28702l0.09398 0.0483 0.04826 0.0457 0.04826 0.0965v0.1905l-0.04826 0.094m-0.5715-0.90424-0.04826-0.094v-0.23876l0.04826-0.0965 0.09398-0.0457h0.09652l0.09398 0.0457 0.04826 0.0965v0.23876l0.04826 0.094m-0.42926 0h0.52324l0.09652-0.0483 0.04826-0.094v-0.1905l-0.04826-0.0965m0.381-0.47494h-0.71374l-0.14478-0.0483-0.09398-0.094-0.04826-0.14478v-0.094m-18.692-23.942v-0.99822l-0.09652 0.14224-0.09398 0.094-0.09652 0.0483m0.5715 0.71368h-0.5715m-0.9525 0v-0.99822h0.381l0.09652 0.0457 0.04572 0.0483 0.04826 0.0965v0.14224l-0.04826 0.094-0.04572 0.0483-0.09652 0.0483h-0.381m0.5715 0.47488-0.33274-0.47498m1.6662 1.8415-0.381 0.381m0.09398-0.0965 0.28702 0.381m-0.381 0v-0.99822m-0.762 0h0.09652l0.09398 0.0457 0.04826 0.0483 0.04826 0.0965 0.04572 0.1905v0.23622l-0.04572 0.1905-0.04826 0.0965-0.04826 0.0483-0.09398 0.0457h-0.09652l-0.09398-0.0457-0.04826-0.0483-0.04826-0.0965-0.04826-0.1905v-0.23622l0.04826-0.1905 0.04826-0.0965 0.04826-0.0483 0.09398-0.0457m-0.90424 0.99822v-0.99822l-0.09652 0.14224-0.09398 0.094-0.09652 0.0483m0.5715 0.71368h-0.5715m1.3818 1.5088 0.04826-0.0483 0.09398-0.0457h0.23876l0.09398 0.0457 0.04826 0.0483 0.04826 0.0965v0.094l-0.04826 0.14224-0.5715 0.5715h0.61976m-1.524 0v-0.99822h0.381l0.09652 0.0457 0.04572 0.0483 0.04826 0.0965v0.14224l-0.04826 0.094-0.04572 0.0483-0.09652 0.0483h-0.381m0.5715 0.47488-0.33274-0.47498m1.4046 1.3818h0.09398l0.09652 0.0457 0.04826 0.0483 0.04572 0.0965 0.04826 0.1905v0.23622l-0.04826 0.1905-0.04572 0.0965-0.04826 0.0483-0.09652 0.0457h-0.09398l-0.09652-0.0457-0.04572-0.0483-0.04826-0.0965-0.04826-0.1905v-0.23622l0.04826-0.1905 0.04826-0.0965 0.04572-0.0483 0.09652-0.0457m-1.1913 0.094 0.04826-0.0483 0.09398-0.0457h0.23876l0.09652 0.0457 0.04572 0.0483 0.04826 0.0965v0.094l-0.04826 0.14224-0.5715 0.5715h0.61976m-1.524-0.90424 0.04826-0.0483 0.09398-0.0457h0.23876l0.09652 0.0457 0.04572 0.0483 0.04826 0.0965v0.094l-0.04826 0.14224-0.5715 0.5715h0.61976m1.1201 1.4935-0.23876 0.71374h0.61976m-0.14478-0.33274v0.66548m-1.4275 0v-0.99822h0.381l0.09652 0.0457 0.04572 0.0483 0.04826 0.0965v0.14224l-0.04826 0.094-0.04572 0.0483-0.09652 0.0483h-0.381m0.5715 0.47488-0.33274-0.47498m1.6662 1.8415-0.381 0.381m0.09398-0.0965 0.28702 0.381m-0.381 0v-0.99822m-0.762 0h0.09652l0.09398 0.0457 0.04826 0.0483 0.04826 0.0965 0.04572 0.1905v0.23622l-0.04572 0.1905-0.04826 0.0965-0.04826 0.0483-0.09398 0.0457h-0.09652l-0.09398-0.0457-0.04826-0.0483-0.04826-0.0965-0.04826-0.1905v-0.23622l0.04826-0.1905 0.04826-0.0965 0.04826-0.0483 0.09398-0.0457m-0.90424 0.99822v-0.99822l-0.09652 0.14224-0.09398 0.094-0.09652 0.0483m0.5715 0.71368h-0.5715m-20.592-2.6289v-1.0008l-0.09652 0.14224-0.09398 0.0965-0.09652 0.0457m0.5715 0.71632h-0.5715m-1.1913-1.0008 0.23876 1.0008 0.1905-0.71628 0.1905 0.71628 0.23876-1.0008m-1.7628 0.9525 0.14224 0.0483h0.23876l0.09652-0.0483 0.04572-0.0483 0.04826-0.094v-0.0965l-0.04826-0.094-0.04572-0.0483-0.09652-0.0483-0.1905-0.0483-0.09398-0.0457-0.04826-0.0483-0.04826-0.0965v-0.094l0.04826-0.0965 0.04826-0.0457 0.09398-0.0483h0.23876l0.14224 0.0483m2.4892-3.8276v-1.0008m-0.28702 0h0.5715m-1.2852 0h0.1905l0.09652 0.0483 0.09398 0.0965 0.04826 0.1905v0.33274l-0.04826 0.1905-0.09398 0.094-0.09652 0.0483h-0.1905l-0.09398-0.0483-0.09652-0.094-0.04826-0.1905v-0.33274l0.04826-0.1905 0.09652-0.0965 0.09398-0.0483m-1.0465 0h0.1905l0.09398 0.0483 0.09652 0.0965 0.04572 0.1905v0.33274l-0.04572 0.1905-0.09652 0.094-0.09398 0.0483h-0.1905l-0.09652-0.0483-0.09398-0.094-0.04826-0.1905v-0.33274l0.04826-0.1905 0.09398-0.0965 0.09652-0.0483m-0.85852 0.47752 0.14478 0.0483 0.04572 0.0457 0.04826 0.0965v0.14224l-0.04826 0.0965-0.04572 0.0457-0.09652 0.0483h-0.381v-1.0008h0.33274l0.09652 0.0483 0.04826 0.0483 0.04572 0.094v0.0965l-0.04572 0.094-0.04826 0.0483-0.09652 0.0483h-0.33274m17.463 26.492 0.04572-0.0483 0.09652-0.0457h0.23876l0.09398 0.0457 0.04826 0.0483 0.04826 0.0965v0.094l-0.04826 0.14224-0.5715 0.5715h0.61976m-1.7628-0.99822 0.23876 0.99822 0.1905-0.71374 0.1905 0.71374 0.23622-0.99822m-1.7602 0.9525 0.14224 0.0457h0.23876l0.09398-0.0457 0.04826-0.0483 0.04826-0.0965v-0.094l-0.04826-0.0965-0.04826-0.0457-0.09398-0.0483-0.1905-0.0483-0.09652-0.0483-0.04826-0.0457-0.04572-0.0965v-0.094l0.04572-0.0965 0.04826-0.0483 0.09652-0.0457h0.23622l0.14478 0.0457m9.4209 5.5729-0.09652 0.0457h-0.1905l-0.09398-0.0457-0.04826-0.0965v-0.381l0.04826-0.094 0.09398-0.0483h0.1905l0.09652 0.0483 0.04826 0.094v0.0965l-0.47752 0.094m-0.381 0.28699-0.09398 0.0457h-0.1905l-0.09652-0.0457-0.04826-0.0483-0.04572-0.0965v-0.28448l0.04572-0.0965 0.04826-0.0457 0.09652-0.0483h0.1905l0.09398 0.0483m-1.0465 0.14221 0.04826-0.0965 0.04572-0.0457 0.09652-0.0483h0.09398m-0.28448 0.66548v-0.66548m-0.90424 0v0.52324l0.04572 0.0965 0.09652 0.0457h0.14224l0.09652-0.0457 0.04572-0.0483m0-0.57145v0.66548m-1.1887 0-0.09652-0.0457-0.04826-0.0483-0.04572-0.0965v-0.28448l0.04572-0.0965 0.04826-0.0457 0.09652-0.0483h0.14224l0.09398 0.0483 0.04826 0.0457 0.04826 0.0965v0.28448l-0.04826 0.0965-0.04826 0.0483-0.09398 0.0457h-0.14224m-1.143-0.0457 0.14224 0.0457h0.23876l0.09398-0.0457 0.04826-0.0483 0.04826-0.0965v-0.094l-0.04826-0.0965-0.04826-0.0457-0.09398-0.0483-0.1905-0.0483-0.09652-0.0483-0.04826-0.0457-0.04572-0.0965v-0.094l0.04572-0.0965 0.04826-0.0483 0.09652-0.0457h0.23622l0.14478 0.0457m-19.017-38.181h0.61976l-0.33274 0.381h0.14224l0.09652 0.0457 0.04572 0.0483 0.04826 0.0965v0.23622l-0.04826 0.0965-0.04572 0.0483-0.09652 0.0457h-0.28448l-0.09652-0.0457-0.04826-0.0483m-1.143-0.90422 0.23876 0.99822 0.1905-0.71374 0.1905 0.71374 0.23876-0.99822m-1.7628 0.9525 0.14224 0.0457h0.23876l0.09652-0.0457 0.04572-0.0483 0.04826-0.0965v-0.094l-0.04826-0.0965-0.04572-0.0457-0.09652-0.0483-0.1905-0.0483-0.09398-0.0483-0.04826-0.0457-0.04826-0.0965v-0.094l0.04826-0.0965 0.04826-0.0483 0.09398-0.0457h0.23876l0.14224 0.0457m2.8219-3.6651v-1.0008m-0.28448 0h0.5715m-0.85852 1.0008h-0.47498v-1.0008h0.47498m-0.47498 0.47752h0.33274m-1.3335 0.47498 0.14224 0.0483h0.23876l0.09652-0.0483 0.04572-0.0483 0.04826-0.094v-0.0965l-0.04826-0.094-0.04572-0.0483-0.09652-0.0483-0.1905-0.0457-0.09398-0.0483-0.04826-0.0483-0.04826-0.094v-0.0965l0.04826-0.094 0.04826-0.0483 0.09398-0.0483h0.23876l0.14224 0.0483m-0.9525 0.95276h-0.47498v-1.0008h0.47498m-0.47498 0.47752h0.33274m-1.3335 0.52324v-1.0008h0.381l0.09398 0.0483 0.04826 0.0483 0.04826 0.094v0.14224l-0.04826 0.0965-0.04826 0.0483-0.09398 0.0457h-0.381m0.5715 0.47742-0.33274-0.47752m20.62-4.8057v0.61976l-0.381-0.33528v0.14478l-0.04572 0.094-0.04826 0.0483-0.09652 0.0483h-0.23622l-0.09652-0.0483-0.04826-0.0483-0.04572-0.094v-0.28702l0.04572-0.094 0.04826-0.0483m-0.09398-0.90418h0.99822v0.381l-0.04572 0.094-0.04826 0.0483-0.09652 0.0483h-0.14224l-0.09398-0.0483-0.04826-0.0483-0.04826-0.094v-0.381m-0.47498 0.5715 0.47498-0.33528m-1.8466 1.4072v0.094l-0.04826 0.0965-0.04572 0.0457-0.09652 0.0483-0.1905 0.0483h-0.23876l-0.1905-0.0483-0.09398-0.0483-0.04826-0.0457-0.04826-0.0965v-0.094l0.04826-0.0965 0.04826-0.0483 0.09398-0.0457 0.1905-0.0483h0.23876l0.1905 0.0483 0.09652 0.0457 0.04572 0.0483 0.04826 0.0965m-0.09398-1.1913 0.04572 0.0483 0.04826 0.094v0.23876l-0.04826 0.094-0.04572 0.0483-0.09652 0.0483h-0.09398l-0.14478-0.0483-0.5715-0.5715v0.61976m0.90678-1.5241 0.04572 0.0483 0.04826 0.094v0.23876l-0.04826 0.094-0.04572 0.0483-0.09652 0.0483h-0.09398l-0.14478-0.0483-0.5715-0.5715v0.61976m-2.0422 13.264 0.09398 0.0457h0.1905l0.09652-0.0457 0.04826-0.0965v-0.0483l-0.04826-0.094-0.09652-0.0483h-0.14224l-0.09398-0.0483-0.04826-0.094v-0.0483l0.04826-0.094 0.09398-0.0483h0.14224l0.09652 0.0483m-1.2395-0.0481v0.52324l0.04826 0.0965 0.09652 0.0457h0.14224l0.09398-0.0457 0.04826-0.0483m0-0.57144v0.66548m-0.99822-0.99822v0.85598l0.04572 0.0965 0.09652 0.0457h0.09398m-0.381-0.66544h0.381m-0.71374 0.61976-0.09398 0.0457h-0.23876l-0.09652-0.0457-0.04572-0.0965v-0.094l0.04572-0.0965 0.09652-0.0483h0.23876l0.09398-0.0457m0 0.42672v-0.52324l-0.04826-0.094-0.09398-0.0483h-0.1905l-0.09652 0.0483m-0.5715-0.38098v0.85598l0.04826 0.0965 0.09652 0.0457h0.09398m-0.381-0.66544h0.381m-1.237 0.61976 0.14224 0.0457h0.23876l0.09398-0.0457 0.04826-0.0483 0.04826-0.0965v-0.094l-0.04826-0.0965-0.04826-0.0457-0.09398-0.0483-0.1905-0.0483-0.09652-0.0483-0.04826-0.0457-0.04572-0.0965v-0.094l0.04572-0.0965 0.04826-0.0483 0.09652-0.0457h0.23622l0.14478 0.0457m25.072 32.873h-0.47498l-0.04826 0.47498 0.04826-0.0483 0.09398-0.0457h0.23876l0.09652 0.0457 0.04572 0.0483 0.04826 0.0965v0.23622l-0.04826 0.0965-0.04572 0.0483-0.09652 0.0457h-0.23876l-0.09398-0.0457-0.04826-0.0483m-0.42926-0.9042v0.71374l-0.04572 0.14224-0.09652 0.0965-0.14224 0.0457h-0.09652m5.1918 2.1667 0.04826-0.0965 0.04572-0.0457 0.09652-0.0483h0.09398m-0.28448 0.66548v-0.66548m-0.47752 0.61976-0.09398 0.0457h-0.1905l-0.09652-0.0457-0.04572-0.0965v-0.381l0.04572-0.094 0.09652-0.0483h0.1905l0.09398 0.0483 0.04826 0.094v0.0965l-0.47498 0.094m-1.0947-0.33276 0.1905 0.66548 0.1905-0.47498 0.1905 0.47498 0.18796-0.66548m-1.4275 0.66548-0.09398-0.0457-0.04826-0.0483-0.04826-0.0965v-0.28448l0.04826-0.0965 0.04826-0.0457 0.09398-0.0483h0.14224l0.09652 0.0483 0.04826 0.0457 0.04572 0.0965v0.28448l-0.04572 0.0965-0.04826 0.0483-0.09652 0.0457h-0.14224m-1.143 0v-0.99822h0.381l0.09652 0.0457 0.04572 0.0483 0.04826 0.0965v0.14224l-0.04826 0.094-0.04572 0.0483-0.09652 0.0483h-0.381m-1.6662-0.1906 0.52324 0.66548m-0.52324 0 0.52324-0.66548m-0.90424-0.33274-0.04826 0.0457 0.04826 0.0483 0.04826-0.0483-0.04826-0.0457v0.094m0 0.90422v-0.66548m-0.61976 0.1905 0.04826-0.0965 0.04826-0.0457 0.09398-0.0483h0.09652m-0.28702 0.66548v-0.66548m-0.5715-0.33274v0.85598l0.04826 0.0965 0.09652 0.0457h0.09398m-0.381-0.66545h0.381m-0.71374 0.61976-0.09652 0.0457h-0.23622l-0.09652-0.0457-0.04826-0.0965v-0.094l0.04826-0.0965 0.09652-0.0483h0.23622l0.09652-0.0457m0 0.42672v-0.52324l-0.04826-0.094-0.09398-0.0483h-0.1905l-0.09652 0.0483m-1.143 0.61725v-0.99822l0.33274 0.71374 0.33528-0.71374v0.99822m-25.212-4.0462h0.61976l-0.33274 0.381h0.14224l0.09652 0.0457 0.04572 0.0483 0.04826 0.0965v0.23622l-0.04826 0.0965-0.04572 0.0483-0.09652 0.0457h-0.28448l-0.09652-0.0457-0.04826-0.0483m-0.381-0.90422v0.71374l-0.04572 0.14224-0.09652 0.0965-0.14224 0.0457h-0.09652m2.2225 3.048v-0.52324l-0.04572-0.094-0.09652-0.0483h-0.14224l-0.09652 0.0483-0.04572 0.0457m0 0.57153v-0.99822m-0.85852 0.9525 0.09652 0.0457h0.1905l0.09398-0.0457 0.04826-0.0965v-0.0483l-0.04826-0.094-0.09398-0.0483h-0.14478l-0.09398-0.0483-0.04826-0.094v-0.0483l0.04826-0.094 0.09398-0.0483h0.14478l0.09398 0.0483m-0.81026 0.57169-0.09398 0.0457h-0.23876l-0.09398-0.0457-0.04826-0.0965v-0.094l0.04826-0.0965 0.09398-0.0483h0.23876l0.09398-0.0457m0 0.42672v-0.52324l-0.04572-0.094-0.09652-0.0483h-0.1905l-0.09398 0.0483m-0.381 0.61725-0.09652-0.0457-0.04826-0.0965v-0.85599m-0.85598 0.99818v-0.99822h0.47498m-0.14224 0.47498h-0.33274m44.768-24.242v-0.99822l-0.09652 0.14224-0.09398 0.094-0.09652 0.0483m0.5715 0.71368h-0.5715m-0.381-0.094-0.04572 0.0483-0.14478 0.0457h-0.09398l-0.14224-0.0457-0.09652-0.0965-0.04826-0.094-0.04572-0.1905v-0.14484l0.04572-0.1905 0.04826-0.094 0.09652-0.0965 0.14224-0.0457h0.09398l0.14478 0.0457 0.04572 0.0483m1.8567 7.1551v-1.0008h0.47752m-0.14224 0.47752h-0.33528m-0.90424-0.14224v0.52324l0.04826 0.094 0.09398 0.0483h0.14478l0.09398-0.0483 0.04826-0.0457m0-0.57154v0.66548m-1.1913-1.0008h0.09652l0.09398 0.0483 0.04826 0.0483 0.04826 0.094 0.04826 0.1905v0.23876l-0.04826 0.1905-0.04826 0.0965-0.04826 0.0457-0.09398 0.0483h-0.09652l-0.09398-0.0483-0.04826-0.0457-0.04826-0.0965-0.04572-0.1905v-0.23876l0.04572-0.1905 0.04826-0.094 0.04826-0.0483 0.09398-0.0483m-0.9525 0h0.09652l0.09398 0.0483 0.04826 0.0483 0.04826 0.094 0.04826 0.1905v0.23876l-0.04826 0.1905-0.04826 0.0965-0.04826 0.0457-0.09398 0.0483h-0.09652l-0.09398-0.0483-0.04826-0.0457-0.04826-0.0965-0.04572-0.1905v-0.23876l0.04572-0.1905 0.04826-0.094 0.04826-0.0483 0.09398-0.0483m-0.90424 1.0008v-1.0008l-0.09398 0.14478-0.09652 0.094-0.09398 0.0483m0.5715 0.71368h-0.5715m-8.5217-7.1552 0.04826-0.0483 0.09398-0.0457h0.23876l0.09652 0.0457 0.04572 0.0483 0.04826 0.0965v0.094l-0.04826 0.14224-0.5715 0.5715h0.61976m-0.9525-0.094-0.04826 0.0483-0.14224 0.0457h-0.09398l-0.14478-0.0457-0.09398-0.0965-0.04826-0.094-0.04826-0.1905v-0.1448l0.04826-0.1905 0.04826-0.094 0.09398-0.0965 0.14478-0.0457h0.09398l0.14224 0.0457 0.04826 0.0483m1.3818-5.3442v-1.0008h0.47498m-0.14224 0.47752h-0.33274m-0.90424-0.14478v0.52578l0.04572 0.094 0.09652 0.0483h0.14224l0.09652-0.0483 0.04572-0.0483m0-0.57148v0.66802m-1.1887-1.0008h0.09398l0.09652 0.0483 0.04572 0.0483 0.04826 0.094 0.04826 0.1905v0.23876l-0.04826 0.1905-0.04826 0.094-0.04572 0.0483-0.09652 0.0483h-0.09398l-0.09652-0.0483-0.04826-0.0483-0.04572-0.094-0.04826-0.1905v-0.23876l0.04826-0.1905 0.04572-0.094 0.04826-0.0483 0.09652-0.0483m-0.90678 1.0008v-1.0008l-0.09398 0.14224-0.09652 0.0965-0.09398 0.0483m0.5715 0.71372h-0.5715m-24.841 14.475-0.71374-0.23622v0.61722m0.33274-0.14224h-0.66548m0.09398-0.85598-0.04826-0.0483-0.04572-0.14224v-0.0965l0.04572-0.14224 0.09652-0.0965 0.09398-0.0457 0.1905-0.0483h0.14478l0.1905 0.0483 0.09398 0.0457 0.09652 0.0965 0.04572 0.14224v0.0965l-0.04572 0.14224-0.04826 0.0483m-7.1552 0.90424h1.0008v0.47498m-0.47752-0.14224v-0.33274m0.14224-0.90424h-0.52324l-0.09398 0.0457-0.04826 0.0965v0.14224l0.04826 0.0965 0.04572 0.0457m0.5715 8e-5h-0.66548m0-1.143h1.0008l-0.14478-0.094-0.09398-0.0965-0.04826-0.094m-0.71374 0.57152v-0.5715m21.092-1.2421v-0.99822l-0.09398 0.14224-0.09652 0.094-0.09398 0.0483m0.5715 0.71368h-0.5715m-0.9525-0.99822 0.33274 0.99822 0.33274-0.99822m-1.524 0.99822v-0.99822h0.381l0.09652 0.0457 0.04826 0.0483 0.04572 0.0965v0.14224l-0.04572 0.094-0.04826 0.0483-0.09652 0.0483h-0.381m0.5715 0.47488-0.33274-0.47498m-4.539 4.5745-0.5715-0.5715m-0.42926 0.5715 0.5715-0.42926m-0.5715-0.14224h1.0008m0-0.47498v-0.47752l-0.47498-0.0483 0.04572 0.0483 0.04826 0.0965v0.23622l-0.04826 0.0965-0.04572 0.0483-0.09652 0.0457h-0.23876l-0.09398-0.0457-0.04826-0.0483-0.04826-0.0965v-0.23622l0.04826-0.0965 0.04826-0.0483m-16.027-70.79-0.23876 0.71374h0.61976m-0.14224-0.33274v0.66548m-0.90678-0.99822v0.71374l-0.04572 0.14224-0.09652 0.0965-0.14224 0.0457h-0.09652m8.9433 0.97794h1.0008m0-0.28702v0.5715m0-1.4757h-0.81026l-0.09652 0.0483-0.04572 0.0483-0.04826 0.094v0.1905l0.04826 0.0965 0.04572 0.0457 0.09652 0.0483h0.81026m0-1.4276v0.1905l-0.04826 0.094-0.09652 0.0965-0.1905 0.0457h-0.33274l-0.1905-0.0457-0.09398-0.0965-0.04826-0.094v-0.1905l0.04826-0.0965 0.09398-0.094 0.1905-0.0483h0.33274l0.1905 0.0483 0.09652 0.094 0.04826 0.0965m0-0.66802h-0.71628l-0.14224-0.0483-0.09398-0.094-0.04826-0.14224v-0.0965m0.32004 80.566 0.66802-0.23876-0.66802-0.23876m-0.33274 0.85852v0.47498l0.47752 0.0483-0.04826-0.0483-0.04826-0.094v-0.23876l0.04826-0.094 0.04826-0.0483 0.09398-0.0483h0.23876l0.09398 0.0483 0.04826 0.0483 0.04826 0.094v0.23876l-0.04826 0.094-0.04826 0.0483m0.09652 0.81022h-0.762m0.381 0.381v-0.762m-5.6998-0.80264 1.0008 0.66802m-1.0008 0 1.0008-0.66802m0 1.5723h-1.0008v-0.381l0.04826-0.0965 0.04826-0.0457 0.09398-0.0483h0.14224l0.09652 0.0483 0.04826 0.0457 0.04572 0.0965v0.381m0.47752-0.5715-0.47752 0.33274m-3.0632-1.2141 1.0008 0.66802m-1.0008 0 1.0008-0.66802m0 1.1913h-1.0008m0 0.28448v-0.5715m6.0808-1.4605h-1.0008v-0.23622l0.04826-0.14478 0.09398-0.094 0.09652-0.0483 0.1905-0.0483h0.14224l0.1905 0.0483 0.09652 0.0483 0.09398 0.094 0.04826 0.14478v0.23622m0 1.049h-1.0008l1.0008-0.5715h-1.0008m0.04826 1.0465-0.04826 0.0965v0.14224l0.04826 0.14224 0.09398 0.0965 0.09652 0.0483 0.1905 0.0457h0.14224l0.1905-0.0457 0.09652-0.0483 0.09398-0.0965 0.04826-0.14224v-0.094l-0.04826-0.14478-0.04826-0.0457h-0.33274v0.1905m0.3175-78.575 0.04826-0.0483 0.09398-0.0457h0.23876l0.09398 0.0457 0.04826 0.0483 0.04826 0.0965v0.094l-0.04826 0.14224-0.5715 0.5715h0.61976m-1.0008-0.9525-0.09398-0.0457h-0.14224l-0.14478 0.0457-0.09398 0.0965-0.04826 0.094-0.04826 0.1905v0.14478l0.04826 0.1905 0.04826 0.094 0.09398 0.0965 0.14478 0.0457h0.09398l0.14224-0.0457 0.04826-0.0483v-0.33274h-0.1905m-1.6815 0.42676v-0.99822l-0.09652 0.14224-0.09398 0.094-0.09652 0.0483m0.5715 0.71368h-0.5715m-0.42926-0.9525-0.09398-0.0457h-0.14224l-0.14478 0.0457-0.09398 0.0965-0.04826 0.094-0.04826 0.1905v0.14478l0.04826 0.1905 0.04826 0.094 0.09398 0.0965 0.14478 0.0457h0.09398l0.14224-0.0457 0.04826-0.0483v-0.33274h-0.1905m-1.6815 0.42676v-0.99822l-0.09652 0.14224-0.09398 0.094-0.09652 0.0483m0.5715 0.71368h-0.5715m-0.61976-0.52324 0.14478 0.0483 0.04572 0.0483 0.04826 0.094v0.14224l-0.04826 0.0965-0.04572 0.0483-0.09652 0.0457h-0.381v-0.99822h0.33274l0.09652 0.0457 0.04826 0.0483 0.04572 0.0965v0.094l-0.04572 0.0965-0.04826 0.0457-0.09652 0.0483h-0.33274m-1.5875-0.38112 0.04826-0.0483 0.09398-0.0457h0.23876l0.09398 0.0457 0.04826 0.0483 0.04826 0.0965v0.094l-0.04826 0.14224-0.5715 0.5715h0.61976m-1.524 0v-0.99822h0.381l0.09652 0.0457 0.04572 0.0483 0.04826 0.0965v0.14224l-0.04826 0.094-0.04572 0.0483-0.09652 0.0483h-0.381m0.5715 0.47488-0.33274-0.47498m-1.8263-0.42926 0.04826-0.0483 0.09398-0.0457h0.23876l0.09398 0.0457 0.04826 0.0483 0.04826 0.0965v0.094l-0.04826 0.14224-0.5715 0.5715h0.61976m-1.1913-0.52324 0.14478 0.0483 0.04572 0.0483 0.04826 0.094v0.14224l-0.04826 0.0965-0.04572 0.0483-0.09652 0.0457h-0.381v-0.99822h0.33274l0.09652 0.0457 0.04826 0.0483 0.04572 0.0965v0.094l-0.04572 0.0965-0.04826 0.0457-0.09652 0.0483h-0.33274m23.764 78.247v-0.99822m-0.99822 0.99822v-0.99822h0.23622l0.14224 0.0457 0.09652 0.0965 0.04826 0.094 0.04572 0.1905v0.14478l-0.04572 0.1905-0.04826 0.094-0.09652 0.0965-0.14224 0.0457h-0.23622m-0.61976 4e-5v-0.99822m-0.28702 0h0.5715m-1.2852 0.99822v-0.99822h0.47752m-0.14478 0.47498h-0.33274m7.7064 0.42926-0.04572 0.0483-0.14478 0.0457h-0.09398l-0.14224-0.0457-0.09652-0.0965-0.04826-0.094-0.04572-0.1905v-0.14482l0.04572-0.1905 0.04826-0.094 0.09652-0.0965 0.14224-0.0457h0.09398l0.14478 0.0457 0.04572 0.0483m-1.5697 0.9042v-0.99822h0.23622l0.14478 0.0457 0.09398 0.0965 0.04826 0.094 0.04826 0.1905v0.14478l-0.04826 0.1905-0.04826 0.094-0.09398 0.0965-0.14478 0.0457h-0.23622m-28.575-77.724v-0.99822h0.23622l0.14478 0.0457 0.09398 0.0965 0.04826 0.094 0.04826 0.1905v0.14478l-0.04826 0.1905-0.04826 0.094-0.09398 0.0965-0.14478 0.0457h-0.23622m-1.049 4e-5v-0.99822l0.5715 0.99822v-0.99822m-1.0465 0.0457-0.09652-0.0457h-0.14224l-0.14224 0.0457-0.09652 0.0965-0.04826 0.094-0.04572 0.1905v0.14478l0.04572 0.1905 0.04826 0.094 0.09652 0.0965 0.14224 0.0457h0.09398l0.14478-0.0457 0.04572-0.0483v-0.33274h-0.1905m44.32 44.552h-2.4994v5.0013h2.4994v-5.0013m-24.214 12.933a1.9 1.9 0 1 0-2.3316-5.3e-4m2.6663-1.5001a1.5 1.5 0 0 1-1.5 1.5 1.5 1.5 0 0 1-1.5-1.5 1.5 1.5 0 0 1 1.5-1.5 1.5 1.5 0 0 1 1.5 1.5zm-2.6664 1.4991h2.3317m30.269 12.855 0.75438-0.80518m-0.7493 11.001h8.9992m-8.9992 3.5001h8.9992v-14.501h-8.2499m-0.7493 0.8001v13.701m-17.496-33.787v-2.4994h-6.3017v2.4994h6.3017m1.9304-1.2497h-1.9304m-8.2296 0h1.9279m0 3.1953v2.4994h6.3017v-2.4994h-6.3017m-1.9279 1.2497h1.9279m8.2321 0h-1.9304m-6.3017 3.1953v2.4994h6.3017v-2.4994h-6.3017m-1.9279 1.2497h1.9279m8.2321 0h-1.9304m-23.942-0.59688a2.0156 2.0156 0 0 1-2.0156 2.0156 2.0156 2.0156 0 0 1-2.0156-2.0156 2.0156 2.0156 0 0 1 2.0156-2.0156 2.0156 2.0156 0 0 1 2.0156 2.0156zm0.98258 2.9997h-2.9997m2.9997-6.002v6.002m-5.9995-6.002h5.9995m-5.9995 6.002v-6.002m2.9997 6.002h-2.9997m25.944 22.863h-5.8014v-4.3002h8.6004v4.3002m-2.2987-1.1506h-4.0005v-1.999m4.0005 0h-4.0005m4.0005 1.999v-1.999m-0.6604 1.999v-1.999m-0.68072 1.999v-1.999m-0.6604 1.999v-1.999m4.3002 3.1496h-1.7983l-0.50038-0.50038-0.50038 0.50038m-20.904-37.237a2.0156 2.0156 0 0 1-2.0156 2.0156 2.0156 2.0156 0 0 1-2.0156-2.0156 2.0156 2.0156 0 0 1 2.0156-2.0156 2.0156 2.0156 0 0 1 2.0156 2.0156zm-5.017-3.0015h2.9997m-2.9997 5.9995v-5.9995m5.9995 5.9995h-5.9995m5.9995-5.9995v5.9995m-2.9997-5.9995h2.9997m16.718-9.7663h-2.4994v6.3017h2.4994v-6.3017m-1.2497-4.4704v4.4704m0 10.77v-4.4679m-5.3111 7.2405a1.9 1.9 0 1 0-2.3316-5.3e-4m-7.6e-5 -1e-3h2.3317m0.33465-1.4991a1.5 1.5 0 0 1-1.5 1.5 1.5 1.5 0 0 1-1.5-1.5 1.5 1.5 0 0 1 1.5-1.5 1.5 1.5 0 0 1 1.5 1.5zm20.193 33.02a1.5 1.5 0 0 1-1.5 1.5 1.5 1.5 0 0 1-1.5-1.5 1.5 1.5 0 0 1 1.5-1.5 1.5 1.5 0 0 1 1.5 1.5zm5.08 0a1.5 1.5 0 0 1-1.5 1.5 1.5 1.5 0 0 1-1.5-1.5 1.5 1.5 0 0 1 1.5-1.5 1.5 1.5 0 0 1 1.5 1.5zm-9.1205-5.2014h10.16v9.7993h-9.6596l-0.50038-0.49784v-9.3015m0 9.3015h10.16m-10.16-1.5011h10.16m-10.16-4.8997h10.16m-6.4821 1.3437-2.093 2.093m1.9101-2.2758-2.093 2.093m7.3558-1.9101-2.093 2.093m1.9101-2.2758-2.093 2.093m-25.532 1.204v1.905h-10.16v-2.54h9.525l0.635 0.635m42.171-21.08a5 5 0 0 1-5 5 5 5 0 0 1-5-5 5 5 0 0 1 5-5 5 5 0 0 1 5 5zm-9.2911-2.189h1.0008m-0.50038-0.50038v1.0008m-2.0632 1.6886a5 5 0 0 1-5 5 5 5 0 0 1-5-5 5 5 0 0 1 5-5 5 5 0 0 1 5 5zm-0.71298 2.1874h-0.99822m0.49784 0.49784v-0.99822m-25.866 6.54a5 5 0 0 1-5 5 5 5 0 0 1-5-5 5 5 0 0 1 5-5 5 5 0 0 1 5 5zm-2.8135-4.2896v0.99822m0.50038-0.49784h-1.0008m13.351 3.8202a1.575 1.575 0 0 1-1.575 1.575 1.575 1.575 0 0 1-1.575-1.575 1.575 1.575 0 0 1 1.575-1.575 1.575 1.575 0 0 1 1.575 1.575zm3.1895-3.8913h-9.5301v9.5301h9.5301v-9.5301m-6.3271 3.8913h3.1191m-3.1191 0h3.1191m-31.91-69.474v-1.905h15.24v2.54h-14.605l-0.635-0.635" fill="none" stroke="#000" stroke-linejoin="bevel" stroke-width=".20122"/>
</svg>
